2.5Hzhigh3min_grf.mot
version=1
nRows=12
nColumns 19
inDegrees=yes
endheader
time	1_ground_force_vx	1_ground_force_vy	1_ground_force_vz	1_ground_force_px	1_ground_force_py	1_ground_force_pz	1_ground_torque_x	1_ground_torque_y	1_ground_torque_z	2_ground_force_vx	2_ground_force_vy	2_ground_force_vz	2_ground_force_px	2_ground_force_py	2_ground_force_pz	2_ground_torque_x	2_ground_torque_y	2_ground_torque_z
            1.253500	           -0.229053	            0.360094	            0.093827	           -0.233013	            0.005581	           -0.255695	            0.164847	           -0.101828	            0.008166	           -0.609775	            0.182451	           -0.139868	           -0.232311	            0.006130	           -0.833667	           -0.131326	           -0.056922	           -0.075547
            1.254000	           -0.457992	            0.719991	            0.233509	           -0.233013	            0.005581	           -0.255695	            0.102316	           -0.101780	           -0.039061	           -0.605643	           -0.923610	            0.184686	           -0.232311	            0.006130	           -0.833667	           -0.131386	           -0.038084	           -0.056630
            1.254500	           -0.319924	           -0.362166	            0.366098	           -0.233013	            0.005581	           -0.255695	            0.266050	           -0.036896	           -0.052085	           -0.232920	           -0.369142	           -0.001214	           -0.232311	            0.006130	           -0.833667	           -0.074792	           -0.094866	            0.018545
            1.255000	           -0.091752	            0.360514	            0.001773	           -0.233013	            0.005581	           -0.255695	            0.243884	            0.027574	            0.033187	           -0.515287	           -0.002363	            0.141003	           -0.232311	            0.006130	           -0.833667	           -0.150071	           -0.048142	            0.094146
            1.255500	           -0.046106	            1.442117	            0.006297	           -0.233013	            0.005581	           -0.255695	            0.092794	           -0.027491	           -0.058749	           -0.279085	           -0.553627	            0.045076	           -0.232311	            0.006130	           -0.833667	           -0.187743	           -0.029104	            0.018829
            1.256000	            0.183860	           -0.181017	            0.182196	           -0.233013	            0.005581	           -0.255695	            0.273677	           -0.082644	           -0.087199	           -0.469102	            0.181955	            0.141641	           -0.232311	            0.006130	           -0.833667	           -0.225490	           -0.000276	           -0.150706
            1.256500	           -0.046235	            0.901713	           -0.087733	           -0.233013	            0.005581	           -0.255695	            0.190922	           -0.082936	           -0.059211	           -0.184159	           -0.920749	           -0.190918	           -0.232311	            0.006130	           -0.833667	           -0.112619	           -0.019514	            0.056531
            1.257000	           -0.275109	            0.901079	            0.050403	           -0.233013	            0.005581	           -0.255695	            0.147452	           -0.138425	           -0.087912	           -0.421649	           -0.001522	            0.000179	           -0.232311	            0.006130	           -0.833667	           -0.112592	           -0.038083	           -0.037787
            1.257500	           -0.503769	            0.359451	            0.232077	           -0.233013	            0.005581	           -0.255695	            0.196450	           -0.101863	           -0.022439	           -0.513896	           -0.371162	            0.280474	           -0.232311	            0.006130	           -0.833667	           -0.131070	           -0.123225	           -0.038083
            1.258000	           -0.320251	            0.179024	            0.276705	           -0.233013	            0.005581	           -0.255695	            0.100474	           -0.018122	           -0.126805	           -0.186735	           -0.184825	           -0.000577	           -0.232311	            0.006130	           -0.833667	           -0.074944	           -0.066104	           -0.094455
            1.258500	           -0.137415	           -0.000223	            0.046197	           -0.233013	            0.005581	           -0.255695	            0.054213	           -0.036783	           -0.062551	           -0.281120	           -0.000848	           -0.046809	           -0.232311	            0.006130	           -0.833667	           -0.056022	           -0.103847	           -0.094598
            1.259000	            0.045403	            0.541396	           -0.135363	           -0.233013	            0.005581	           -0.255695	            0.230785	            0.018548	            0.001442	           -0.186111	           -0.368639	           -0.095091	           -0.232311	            0.006130	           -0.833667	           -0.149941	           -0.104253	           -0.075708
